<svg xmlns="http://www.w3.org/2000/svg"
     viewBox="0 0 300.0 300.0"
     role="img"
     aria-labelledby="title">
  <title id="title">fi-rr-network</title>
  <g transform="translate(-0.0 300) scale(1 -1)">
    <path d="M288 50H185Q182 58 176.0 64.0Q170 70 163 73V125H238Q249 125 258.5 131.5Q268 138 272.5 149.0Q277 160 274.0 171.5Q271 183 263 190V250Q263 271 248.0 285.5Q233 300 212 300H88Q67 300 52.5 285.5Q38 271 37 250V190Q29 183 26.0 171.5Q23 160 27.5 149.0Q32 138 41.5 131.5Q51 125 62 125H138V73Q130 70 124.0 64.0Q118 58 115 50H13Q7 50 3.5 46.5Q0 43 0.0 37.5Q0 32 3.5 28.5Q7 25 12 25H115Q119 14 128.5 7.0Q138 0 150.0 0.0Q162 0 171.5 7.0Q181 14 185 25H288Q293 25 296.5 28.5Q300 32 300.0 37.5Q300 43 296.5 46.5Q293 50 288 50ZM63 250Q63 260 70.0 267.5Q77 275 87 275H213Q223 275 230.0 267.5Q237 260 237 250V200H193Q182 200 175 193L170 188H130L125 193Q118 200 107 200H63ZM50 163Q50 168 53.5 171.5Q57 175 62 175H107L113 170Q120 162 130 163H170Q180 162 188 170L193 175H238Q243 175 246.5 171.5Q250 168 250.0 162.5Q250 157 246.5 153.5Q243 150 238 150H63Q57 150 53.5 153.5Q50 157 50 162ZM150 25Q145 25 141.0 28.5Q137 32 137.5 37.5Q138 43 141.5 46.5Q145 50 150.0 50.0Q155 50 159.0 46.5Q163 43 163.0 37.5Q163 32 159.0 28.5Q155 25 150 25Z"/>
  </g>
</svg>
